<?xml version="1.0" standalone="no"?>
<!DOCTYPE svg PUBLIC "-//W3C//DTD SVG 20010904//EN"
 "http://www.w3.org/TR/2001/REC-SVG-20010904/DTD/svg10.dtd">
<svg version="1.0" xmlns="http://www.w3.org/2000/svg"
 width="200.000000pt" height="200.000000pt" viewBox="0 0 200.000000 200.000000"
 preserveAspectRatio="xMidYMid meet">
<metadata>
Created by potrace 1.16, written by Peter Selinger 2001-2019
</metadata>
<g transform="translate(0.000000,200.000000) scale(0.100000,-0.100000)"
fill="#000000" stroke="none">
<path d="M13 1602 c-10 -6 -12 -141 -10 -602 l2 -595 995 0 995 0 3 594 c2
469 0 596 -10 603 -17 10 -1959 10 -1975 0z m1095 -294 l-3 -83 -110 0 -110 0
-3 83 -3 82 116 0 116 0 -3 -82z m282 -43 c0 -69 2 -125 5 -125 2 0 20 11 40
24 47 32 111 41 177 26 164 -40 239 -291 141 -472 -44 -82 -143 -127 -243
-113 -53 8 -76 19 -112 53 l-28 26 0 -32 0 -32 -99 0 c-81 0 -100 3 -105 16
-8 21 -8 739 1 747 3 4 55 7 115 7 l108 0 0 -125z m-703 -77 c61 -15 116 -70
131 -131 7 -27 12 -126 12 -241 l0 -196 -115 0 -115 0 0 174 c0 202 -6 218
-75 218 -69 0 -75 -16 -75 -218 l0 -174 -115 0 -115 0 0 280 0 280 105 0 105
0 0 -37 0 -37 34 33 c58 56 132 72 223 49z m423 -288 l0 -280 -115 0 -115 0 0
280 0 280 115 0 115 0 0 -280z"/>
<path d="M1442 1010 c-46 -19 -66 -117 -38 -185 34 -80 126 -71 155 14 15 46
14 73 -5 119 -21 54 -61 72 -112 52z"/>
</g>
</svg>
